<!-- Generator: Avocode undefined - http://avocode.com -->
<svg height="50" width="167" xmlns:xlink="http://www.w3.org/1999/xlink" xmlns="http://www.w3.org/2000/svg" viewBox="0 0 167 50">
    <path fill="#eb690a" fill-rule="evenodd" d="M 81 12 L 81 27 C 81.03 26.69 79.29 27.79 75 29 C 72.44 29.12 68.99 29.14 69 29 L 69 12 L 61 12 L 61 37 C 61 36.91 67.81 37.32 74 36 C 77.58 35.78 81.07 34.65 81 35 L 81 37 L 89 37 L 89 12 L 81 12 Z M 81 12" />
    <path fill="#eb690a" fill-rule="evenodd" d="M 58 37 L 58 12 C 49.37 12.14 37.41 13.76 30 17 L 30 37 L 38 37 L 38 34 L 50 34 L 50 37 L 58 37 Z M 38 27 L 38 23 C 38 23.27 40.57 22.17 44 22 C 47.54 21 50 21 50 21 L 50 27 L 38 27 Z M 38 27" />
    <path fill="#eb690a" fill-rule="evenodd" d="M 119 37 L 119 17 C 119 16.74 113.51 14.65 109 14 C 106 13.12 98.92 12.25 99 12 L 99 0 C 98.92 0 96.98 0.61 94 2 C 91.77 4.43 91 5.96 91 6 L 91 22 L 91 34 L 91 37 L 99 37 L 99 20 C 98.96 20.43 101.43 20.43 105 21 C 108.4 21.65 110.98 22.79 111 23 L 111 37 L 119 37 Z M 119 37" />
    <path fill="#eb690a" fill-rule="evenodd" d="M 148 23 L 148 12 C 139.69 12.14 128.15 13.75 121 17 L 121 26 L 121 37 C 129.32 36.86 139.89 36.32 148 34 L 148 23 Z M 140 28 C 133.59 29.31 129.01 28.96 129 29 L 129 23 C 129 23.21 131.4 22.14 134 22 C 137.88 21 140 21 140 21 L 140 28 Z M 140 28" />
    <path fill="#eb690a" fill-rule="evenodd" d="M 8 0 C 7.91 0 5.98 0.61 3 2 C 0.77 4.41 0 5.93 0 6 L 0 22 L 0 34 C 1.52 34.36 7.6 35.84 13 36 C 18.65 36.8 26.87 37.14 28 37 L 28 17 C 20.24 13.09 7.91 12.19 8 12 L 8 0 Z M 20 29 C 14.39 28.9 8 27.53 8 28 L 8 20 C 8 20 10.46 20 14 21 C 17.42 21.24 20 22.4 20 22 L 20 29 Z M 20 29" />
    <path fill="#eb690a" fill-rule="evenodd" d="M 162 1 C 155.14 3.62 151 8.53 151 9 L 151 28 L 151 44 L 151 50 C 151 50 152.88 49.39 155 48 C 157.93 45.56 158.72 44.05 159 44 L 159 20 L 164 20 L 164 12 L 159 12 L 159 12 C 159.36 11.43 162.11 9.27 167 8 L 167 8 L 167 0 C 167 0 163.38 0.81 162 1" />
</svg>