<?xml version="1.0" encoding="UTF-8" standalone="no"?>
<svg width="282px" height="136px" viewBox="0 0 282 136" version="1.1" xmlns="http://www.w3.org/2000/svg" xmlns:xlink="http://www.w3.org/1999/xlink" xmlns:sketch="http://www.bohemiancoding.com/sketch/ns">
    <!-- Generator: Sketch 3.3.3 (12081) - http://www.bohemiancoding.com/sketch -->
    <title>Bauhof-remont-värviline</title>
    <desc>Created with Sketch.</desc>
    <defs></defs>
    <g id="Page-1" stroke="none" stroke-width="1" fill="none" fill-rule="evenodd" sketch:type="MSPage">
        <g id="Bauhof-remont-värviline" sketch:type="MSLayerGroup">
            <path d="M134.759,69.435 L134.759,94.351 C134.684,94.372 131.823,96.245 124.793,97.652 C120.553,98.505 114.866,98.556 114.866,98.556 L114.88,69.409 L101.714,69.409 L101.714,111.743 C101.714,111.743 112.934,112.449 122.647,110.866 C129.016,109.831 134.759,107.9 134.759,107.9 L134.759,111.814 L147.814,111.814 L147.814,69.435 L134.759,69.435" id="Fill-29" fill="#E36729" sketch:type="MSShapeGroup"></path>
            <path d="M134.759,69.435 L134.759,94.351 C134.684,94.372 131.823,96.245 124.793,97.652 C120.553,98.505 114.866,98.556 114.866,98.556 L114.88,69.409 L101.714,69.409 L101.714,111.743 C101.714,111.743 112.934,112.449 122.647,110.866 C129.016,109.831 134.759,107.9 134.759,107.9 L134.759,111.814 L147.814,111.814 L147.814,69.435 L134.759,69.435" id="Stroke-30" stroke="#E36729" stroke-width="0.711" sketch:type="MSShapeGroup"></path>
            <path d="M97.074,111.423 L97.035,69.115 C82.884,69.361 63.237,72.089 51.046,77.718 L51.046,111.478 L64.33,111.478 L64.33,107.089 L84.05,107.089 L84.05,111.423 L97.074,111.423 L97.074,111.423 Z M64.33,94.138 L64.33,87.624 C64.33,87.624 68.568,85.702 73.871,84.747 C80.027,83.659 84.077,83.659 84.077,83.659 L84.077,94.138 L64.33,94.138 L64.33,94.138 Z" id="Fill-31" fill="#E36729" sketch:type="MSShapeGroup"></path>
            <g id="Group-34" transform="translate(51.000000, 69.000000)" stroke="#E36729" stroke-width="0.711" sketch:type="MSShapeGroup">
                <path d="M46.074,42.423 L46.035,0.115 C31.884,0.361 12.237,3.089 0.046,8.718 L0.046,42.478 L13.33,42.478 L13.33,38.089 L33.05,38.089 L33.05,42.423 L46.074,42.423 L46.074,42.423 Z" id="Stroke-32"></path>
                <path d="M13.33,25.138 L13.33,18.624 C13.33,18.624 17.568,16.702 22.871,15.747 C29.027,14.659 33.077,14.659 33.077,14.659 L33.077,25.138 L13.33,25.138" id="Stroke-33"></path>
            </g>
            <path d="M198.369,111.657 L198.383,77.663 C198.383,77.663 189.354,74.159 182.218,72.665 C177.024,71.583 165.385,70.128 165.385,70.128 L165.385,49.564 C165.385,49.564 162.201,50.586 158.013,53.728 C153.62,56.993 152.373,59.574 152.373,59.574 L152.373,111.673 L165.421,111.673 L165.436,83.853 C165.436,83.853 169.511,83.853 175.653,84.949 C180.969,85.909 185.208,87.822 185.208,87.822 L185.208,111.657 L198.369,111.657" id="Fill-35" fill="#E36729" sketch:type="MSShapeGroup"></path>
            <path d="M198.369,111.657 L198.383,77.663 C198.383,77.663 189.354,74.159 182.218,72.665 C177.024,71.583 165.385,70.128 165.385,70.128 L165.385,49.564 C165.385,49.564 162.201,50.586 158.013,53.728 C153.62,56.993 152.373,59.574 152.373,59.574 L152.373,111.673 L165.421,111.673 L165.436,83.853 C165.436,83.853 169.511,83.853 175.653,84.949 C180.969,85.909 185.208,87.822 185.208,87.822 L185.208,111.657 L198.369,111.657" id="Stroke-36" stroke="#E36729" stroke-width="0.711" sketch:type="MSShapeGroup"></path>
            <path d="M249.029,87.755 L249.029,69.115 C234.872,69.361 215.218,72.089 203.031,77.718 L203.031,93.048 L203.049,111.673 C217.2,111.423 235.217,110.531 249.029,106.736 L249.029,87.755 L249.029,87.755 Z M235.751,95.894 C224.417,98.521 216.324,97.907 216.324,97.907 L216.313,87.624 C216.313,87.624 220.541,85.702 225.851,84.747 C232.006,83.659 235.769,83.659 235.769,83.659 L235.751,95.894 L235.751,95.894 Z" id="Fill-37" fill="#E36729" sketch:type="MSShapeGroup"></path>
            <g id="Group-40" transform="translate(203.000000, 69.000000)" stroke="#E36729" stroke-width="0.711" sketch:type="MSShapeGroup">
                <path d="M46.029,18.755 L46.029,0.115 C31.872,0.361 12.218,3.089 0.031,8.718 L0.031,24.048 L0.049,42.673 C14.2,42.423 32.217,41.531 46.029,37.736 L46.029,18.755 L46.029,18.755 Z" id="Stroke-38"></path>
                <path d="M32.751,26.894 C21.417,29.521 13.324,28.907 13.324,28.907 L13.313,18.624 C13.313,18.624 17.541,16.702 22.851,15.747 C29.006,14.659 32.769,14.659 32.769,14.659 L32.751,26.894" id="Stroke-39"></path>
            </g>
            <path d="M13.395,69.792 L13.395,49.229 C13.395,49.229 10.224,50.252 6.028,53.402 C1.651,56.664 0.392,59.232 0.392,59.232 L0.392,106.462 C2.88,107.216 12.893,109.716 22.562,110.583 C31.07,111.341 44.587,111.904 46.448,111.577 L46.401,77.339 C33.692,71.32 13.395,69.792 13.395,69.792 M33.222,98.374 C23.983,98.204 13.459,95.958 13.459,95.958 L13.459,83.515 C13.459,83.515 17.52,83.515 23.674,84.618 C28.983,85.554 33.222,87.486 33.222,87.486 L33.222,98.374" id="Fill-41" fill="#E36729" sketch:type="MSShapeGroup"></path>
            <g id="Group-44" transform="translate(0.000000, 49.000000)" stroke="#E36729" stroke-width="0.711" sketch:type="MSShapeGroup">
                <path d="M13.395,20.792 L13.395,0.229 C13.395,0.229 10.224,1.252 6.028,4.402 C1.651,7.664 0.392,10.232 0.392,10.232 L0.392,57.462 C2.88,58.216 12.893,60.716 22.562,61.583 C31.07,62.341 44.587,62.904 46.448,62.577 L46.401,28.339 C33.692,22.32 13.395,20.792 13.395,20.792" id="Stroke-42"></path>
                <path d="M33.222,49.374 C23.983,49.204 13.459,46.958 13.459,46.958 L13.459,34.515 C13.459,34.515 17.52,34.515 23.674,35.618 C28.983,36.554 33.222,38.486 33.222,38.486 L33.222,49.374" id="Stroke-43"></path>
            </g>
            <path d="M272.551,51.335 C260.709,55.327 253.689,63.56 253.689,63.56 L253.689,133.042 C253.689,133.042 256.876,132.025 261.079,128.868 C265.443,125.597 266.779,123.068 266.779,123.068 L266.803,82.351 L276.429,82.351 L276.429,69.409 L266.814,69.409 L266.814,69.288 C267.866,68.421 272.523,64.804 280.264,62.904 L280.808,62.777 L280.808,49.26 C280.808,49.26 274.678,50.615 272.551,51.335" id="Fill-45" fill="#E36729" sketch:type="MSShapeGroup"></path>
            <path d="M272.551,51.335 C260.709,55.327 253.689,63.56 253.689,63.56 L253.689,133.042 C253.689,133.042 256.876,132.025 261.079,128.868 C265.443,125.597 266.779,123.068 266.779,123.068 L266.803,82.351 L276.429,82.351 L276.429,69.409 L266.814,69.409 L266.814,69.288 C267.866,68.421 272.523,64.804 280.264,62.904 L280.808,62.777 L280.808,49.26 C280.808,49.26 274.678,50.615 272.551,51.335" id="Stroke-46" stroke="#E36729" stroke-width="0.711" sketch:type="MSShapeGroup"></path>
            <path d="M9.198,124.917 C9.198,124.56 9.14,124.245 9.022,123.978 C8.905,123.708 8.736,123.505 8.516,123.366 C8.337,123.257 8.113,123.177 7.844,123.13 C7.575,123.081 7.214,123.058 6.759,123.058 L5.952,123.058 L5.952,126.986 L6.717,126.986 C7.241,126.986 7.641,126.95 7.916,126.882 C8.192,126.814 8.427,126.683 8.619,126.49 C8.798,126.31 8.94,126.083 9.043,125.808 C9.146,125.532 9.198,125.236 9.198,124.917 L9.198,124.917 Z M9.488,135.236 L7.069,129.322 L5.952,129.322 L5.952,134.988 L1.61,134.988 L1.61,120.515 L7.233,120.515 C7.854,120.515 8.389,120.529 8.836,120.556 C9.284,120.583 9.677,120.628 10.015,120.689 C10.352,120.751 10.652,120.835 10.915,120.939 C11.176,121.04 11.425,121.175 11.659,121.341 C12.183,121.7 12.582,122.165 12.858,122.738 C13.134,123.308 13.271,123.947 13.271,124.65 C13.271,126.4 12.382,127.73 10.604,128.64 L14.037,134.761 L9.488,135.236 L9.488,135.236 Z" id="Fill-47" fill="#30424F" sketch:type="MSShapeGroup"></path>
            <path d="M16.186,134.988 L16.186,120.515 L24.995,120.515 L24.995,123.243 L20.529,123.243 L20.529,126.034 L24.891,126.034 L24.891,128.806 L20.529,128.806 L20.529,132.257 L25.863,132.257 L25.863,134.988 L16.186,134.988" id="Fill-48" fill="#30424F" sketch:type="MSShapeGroup"></path>
            <path d="M40.213,134.988 L40.213,127.689 C40.213,127.179 40.217,126.792 40.224,126.531 C40.229,126.269 40.237,126.052 40.244,125.88 C40.251,125.706 40.258,125.552 40.265,125.413 C40.271,125.277 40.281,125.077 40.296,124.816 C40.144,125.366 39.997,125.872 39.851,126.335 C39.708,126.796 39.56,127.247 39.409,127.689 L36.892,134.988 L35.057,134.988 L32.477,127.689 C32.34,127.288 32.196,126.837 32.045,126.335 C31.893,125.831 31.742,125.318 31.591,124.794 C31.604,125.083 31.618,125.322 31.632,125.507 C31.646,125.695 31.656,125.882 31.663,126.075 C31.67,126.269 31.674,126.49 31.674,126.738 L31.674,127.689 L31.674,134.988 L28.262,134.988 L28.262,120.515 L33.41,120.515 L36.45,129.384 L39.386,120.515 L44.369,120.515 L44.369,134.988 L40.213,134.988" id="Fill-49" fill="#30424F" sketch:type="MSShapeGroup"></path>
            <path d="M56.879,127.814 C56.879,126.269 56.661,125.128 56.227,124.39 C55.793,123.654 55.121,123.284 54.211,123.284 C53.633,123.284 53.17,123.437 52.826,123.74 C52.481,124.042 52.216,124.419 52.03,124.866 C51.844,125.314 51.723,125.8 51.668,126.324 C51.613,126.847 51.585,127.324 51.585,127.751 C51.585,128.191 51.613,128.673 51.668,129.199 C51.723,129.722 51.844,130.206 52.03,130.656 C52.216,131.105 52.481,131.476 52.826,131.773 C53.17,132.068 53.64,132.216 54.231,132.216 C55.997,132.216 56.879,130.749 56.879,127.814 L56.879,127.814 Z M61.428,127.689 C61.428,128.751 61.258,129.74 60.921,130.656 C60.583,131.574 60.103,132.372 59.483,133.054 C58.863,133.738 58.108,134.271 57.22,134.657 C56.33,135.042 55.342,135.236 54.253,135.236 C53.164,135.236 52.175,135.042 51.285,134.657 C50.396,134.271 49.638,133.743 49.012,133.075 C48.384,132.406 47.901,131.615 47.563,130.697 C47.225,129.781 47.058,128.792 47.058,127.73 C47.058,126.642 47.24,125.64 47.605,124.722 C47.971,123.804 48.48,123.015 49.135,122.355 C49.789,121.693 50.568,121.179 51.472,120.814 C52.374,120.449 53.37,120.267 54.459,120.267 C55.452,120.267 56.372,120.45 57.22,120.825 C58.067,121.197 58.805,121.712 59.432,122.374 C60.059,123.036 60.549,123.824 60.9,124.732 C61.251,125.642 61.428,126.628 61.428,127.689 L61.428,127.689 Z" id="Fill-50" fill="#30424F" sketch:type="MSShapeGroup"></path>
            <path d="M74.081,134.988 L67.527,126.8 L67.527,134.988 L64.115,134.988 L64.115,120.515 L67.134,120.515 L73.42,128.556 L73.42,120.515 L76.831,120.515 L76.831,134.988 L74.081,134.988" id="Fill-51" fill="#30424F" sketch:type="MSShapeGroup"></path>
            <path d="M87.066,123.243 L87.066,134.988 L82.724,134.988 L82.724,123.243 L78.567,123.243 L78.567,120.515 L91.284,120.515 L91.284,123.243 L87.066,123.243" id="Fill-52" fill="#30424F" sketch:type="MSShapeGroup"></path>
            <path d="M138.84,124.691 C138.84,125.407 138.678,126.103 138.353,126.779 C138.03,127.454 137.592,127.999 137.041,128.411 C136.462,128.853 135.775,129.195 134.983,129.435 C134.19,129.677 133.374,129.798 132.533,129.798 L132.161,129.798 L132.161,127.234 C132.905,127.165 133.495,126.935 133.929,126.54 C134.363,126.148 134.58,125.642 134.58,125.021 C134.58,124.195 134.215,123.663 133.484,123.429 C133.388,123.402 133.299,123.378 133.215,123.357 C133.133,123.335 133.036,123.324 132.927,123.316 C132.815,123.308 132.671,123.302 132.492,123.294 C132.312,123.288 132.085,123.284 131.809,123.284 L131.252,123.284 L131.252,134.988 L126.93,134.988 L126.93,120.515 L132.141,120.515 C132.844,120.515 133.443,120.525 133.939,120.544 C134.435,120.566 134.866,120.607 135.231,120.669 C135.597,120.73 135.91,120.812 136.173,120.907 C136.433,121.003 136.688,121.128 136.937,121.279 C137.558,121.652 138.03,122.13 138.353,122.716 C138.678,123.302 138.84,123.96 138.84,124.691" id="Fill-53" fill="#30424F" sketch:type="MSShapeGroup"></path>
            <path d="M145.766,124.712 L144.133,129.24 L147.213,129.24 L145.766,124.712 L145.766,124.712 Z M149.033,134.988 L147.894,131.513 L143.408,131.513 L142.003,134.988 L138.612,134.988 L144.504,120.515 L148.164,120.515 L153.642,134.988 L149.033,134.988 L149.033,134.988 Z" id="Fill-54" fill="#30424F" sketch:type="MSShapeGroup"></path>
            <path d="M155.38,134.988 L159.723,134.988 L159.723,120.515 L155.38,120.515 L155.38,134.988 Z" id="Fill-55" fill="#30424F" sketch:type="MSShapeGroup"></path>
            <path d="M173.265,135.05 C172.493,135.173 171.776,135.236 171.114,135.236 C169.846,135.236 168.682,135.046 167.619,134.667 C166.558,134.288 165.642,133.757 164.87,133.075 C164.098,132.392 163.495,131.585 163.06,130.656 C162.627,129.726 162.409,128.7 162.409,127.585 C162.409,126.509 162.62,125.521 163.041,124.618 C163.461,123.716 164.046,122.945 164.799,122.302 C165.55,121.661 166.444,121.161 167.485,120.802 C168.526,120.445 169.668,120.267 170.908,120.267 C171.597,120.267 172.231,120.324 172.81,120.441 C173.389,120.558 173.988,120.741 174.609,120.99 L173.513,123.552 C173.168,123.443 172.841,123.366 172.532,123.325 C172.221,123.284 171.892,123.263 171.55,123.263 C170.846,123.263 170.213,123.37 169.645,123.583 C169.08,123.798 168.599,124.105 168.199,124.505 C167.8,124.906 167.489,125.382 167.268,125.943 C167.048,126.499 166.937,127.116 166.937,127.79 C166.937,128.411 167.033,128.995 167.226,129.538 C167.419,130.083 167.682,130.552 168.013,130.945 C168.344,131.337 168.737,131.65 169.191,131.876 C169.645,132.103 170.136,132.216 170.66,132.216 C170.867,132.216 171.086,132.191 171.321,132.134 L171.321,128.37 L175.642,128.37 L175.642,134.511 C174.829,134.747 174.036,134.925 173.265,135.05" id="Fill-56" fill="#30424F" sketch:type="MSShapeGroup"></path>
            <path d="M184.553,124.712 L182.921,129.24 L186.001,129.24 L184.553,124.712 L184.553,124.712 Z M187.82,134.988 L186.683,131.513 L182.196,131.513 L180.791,134.988 L177.399,134.988 L183.292,120.515 L186.952,120.515 L192.431,134.988 L187.82,134.988 L187.82,134.988 Z" id="Fill-57" fill="#30424F" sketch:type="MSShapeGroup"></path>
            <path d="M194.167,134.988 L194.167,120.515 L198.511,120.515 L198.511,132.257 L203.823,132.257 L203.823,134.988 L194.167,134.988" id="Fill-58" fill="#30424F" sketch:type="MSShapeGroup"></path>
            <path d="M214.679,127.46 C214.679,126.628 214.547,125.902 214.287,125.279 C214.023,124.656 213.632,124.171 213.107,123.825 C212.789,123.616 212.449,123.468 212.083,123.378 C211.718,123.288 211.246,123.243 210.668,123.243 L209.923,123.243 L209.923,132.257 L210.585,132.257 C211.287,132.257 211.863,132.185 212.31,132.04 C212.758,131.894 213.148,131.65 213.479,131.302 C213.851,130.915 214.144,130.374 214.357,129.683 C214.572,128.991 214.679,128.249 214.679,127.46 L214.679,127.46 Z M219.226,127.378 C219.226,128.716 218.956,129.927 218.411,131.007 C217.867,132.089 217.091,132.96 216.085,133.624 C215.368,134.105 214.555,134.454 213.644,134.667 C212.735,134.88 211.652,134.988 210.399,134.988 L205.581,134.988 L205.581,120.515 L210.15,120.515 L211.391,120.515 C211.722,120.515 212.001,120.521 212.228,120.534 C212.457,120.548 212.663,120.57 212.85,120.595 C213.035,120.624 213.251,120.659 213.501,120.699 C214.395,120.866 215.199,121.14 215.909,121.527 C216.618,121.913 217.219,122.394 217.708,122.964 C218.197,123.536 218.572,124.195 218.834,124.939 C219.097,125.685 219.226,126.497 219.226,127.378 L219.226,127.378 Z" id="Fill-59" fill="#30424F" sketch:type="MSShapeGroup"></path>
            <path d="M234.28,129.663 C234.267,130.001 234.241,130.302 234.208,130.562 C234.174,130.824 234.128,131.064 234.074,131.277 C234.018,131.49 233.948,131.7 233.866,131.907 C233.438,132.995 232.718,133.824 231.705,134.388 C230.692,134.952 229.434,135.236 227.932,135.236 C226.705,135.236 225.638,135.04 224.726,134.648 C223.817,134.253 223.1,133.685 222.577,132.941 C222.398,132.679 222.249,132.421 222.132,132.165 C222.016,131.911 221.925,131.615 221.863,131.277 C221.802,130.937 221.756,130.531 221.728,130.056 C221.702,129.581 221.687,128.999 221.687,128.31 L221.687,120.515 L226.009,120.515 L226.009,127.585 C226.009,128.109 226.017,128.556 226.029,128.929 C226.044,129.302 226.06,129.618 226.081,129.88 C226.101,130.142 226.133,130.366 226.174,130.552 C226.217,130.74 226.27,130.9 226.341,131.038 C226.671,131.824 227.269,132.216 228.139,132.216 C228.676,132.216 229.139,132.068 229.524,131.773 C229.91,131.476 230.179,131.052 230.331,130.499 C230.398,130.238 230.455,129.849 230.496,129.333 C230.537,128.816 230.558,128.199 230.558,127.482 L230.558,120.515 L234.301,120.515 L234.301,128.474 C234.301,128.929 234.293,129.325 234.28,129.663" id="Fill-60" fill="#30424F" sketch:type="MSShapeGroup"></path>
            <path d="M246.458,130.962 C246.458,131.609 246.324,132.195 246.054,132.716 C245.786,133.24 245.406,133.687 244.917,134.058 C244.428,134.431 243.842,134.72 243.16,134.927 C242.478,135.132 241.716,135.236 240.875,135.236 C240.007,135.236 239.203,135.128 238.467,134.913 C237.728,134.699 237.009,134.355 236.305,133.882 L237.63,131.472 C238.027,131.804 238.456,132.058 238.91,132.238 C239.366,132.417 239.814,132.505 240.254,132.505 C240.751,132.505 241.183,132.38 241.548,132.124 C241.912,131.87 242.097,131.529 242.097,131.103 C242.097,130.896 242.055,130.697 241.971,130.503 C241.889,130.31 241.758,130.109 241.578,129.896 C241.399,129.681 241.179,129.45 240.917,129.204 C240.654,128.956 240.344,128.673 239.986,128.359 C239.476,127.904 239.073,127.556 238.776,127.316 C238.479,127.074 238.227,126.837 238.021,126.603 C237.664,126.216 237.394,125.818 237.215,125.406 C237.037,124.993 236.946,124.538 236.946,124.044 C236.946,123.466 237.072,122.945 237.319,122.486 C237.567,122.025 237.916,121.628 238.363,121.298 C238.81,120.968 239.349,120.714 239.977,120.534 C240.602,120.355 241.296,120.267 242.055,120.267 C243.391,120.267 244.666,120.591 245.879,121.243 L244.721,123.532 C244.308,123.339 243.96,123.202 243.677,123.118 C243.394,123.036 243.087,122.995 242.757,122.995 C242.344,122.995 242.012,123.077 241.765,123.243 C241.517,123.407 241.392,123.628 241.392,123.904 C241.392,124.013 241.41,124.122 241.444,124.234 C241.477,124.343 241.551,124.464 241.661,124.595 C241.77,124.726 241.927,124.884 242.127,125.07 C242.326,125.255 242.585,125.486 242.901,125.761 C243.219,126.036 243.484,126.271 243.697,126.462 C243.912,126.656 244.101,126.831 244.267,126.99 C244.432,127.148 244.577,127.292 244.701,127.423 C244.824,127.554 244.948,127.687 245.072,127.825 C245.996,128.816 246.458,129.863 246.458,130.962" id="Fill-61" fill="#30424F" sketch:type="MSShapeGroup"></path>
            <path d="M103.474,128.191 C103.474,129.763 103.343,130.945 103.041,131.716 C102.661,132.747 101.979,133.562 101.018,134.179 C100.066,134.782 98.969,135.085 97.729,135.07 L97.729,132.538 C98.377,132.277 98.767,131.921 98.901,131.482 C99.043,131.044 99.112,129.974 99.112,128.271 L99.112,120.515 L103.474,120.515 L103.474,128.191" id="Fill-62" fill="#30424F" sketch:type="MSShapeGroup"></path>
            <path d="M119.693,135.064 L115.05,135.064 L113.909,131.575 L109.401,131.575 L107.984,135.064 L104.569,135.064 L110.503,120.515 L114.18,120.515 L119.693,135.064 L119.693,135.064 Z M113.222,129.286 L111.759,124.736 L110.126,129.286 L113.222,129.286 L113.222,129.286 Z" id="Fill-63" fill="#30424F" sketch:type="MSShapeGroup"></path>
            <path d="M242.773,40.397 L242.515,11.557 L212.771,11.557 L212.771,18.398 L187.09,0.527 L92.326,65.138 C96.529,64.9 101.018,64.863 105.777,64.985 L187.046,9.575 L220.223,32.659 L220.223,19.008 L235.129,19.008 L235.357,44.423 L254.217,56.911 C254.217,56.911 257.725,53.995 260.945,52.431 L242.773,40.397" id="Fill-64" fill="#30424F" sketch:type="MSShapeGroup"></path>
        </g>
    </g>
</svg>