<?xml version="1.0" encoding="UTF-8" standalone="no"?>
<svg width="281px" height="136px" viewBox="0 0 281 136" version="1.1" xmlns="http://www.w3.org/2000/svg" xmlns:xlink="http://www.w3.org/1999/xlink" xmlns:sketch="http://www.bohemiancoding.com/sketch/ns">
    <!-- Generator: Sketch 3.3.3 (12081) - http://www.bohemiancoding.com/sketch -->
    <title>Bauhof-remont-valge</title>
    <desc>Created with Sketch.</desc>
    <defs></defs>
    <g id="Page-1" stroke="none" stroke-width="1" fill="none" fill-rule="evenodd" sketch:type="MSPage">
        <g id="Bauhof-remont-valge" sketch:type="MSLayerGroup" fill="#FFFFFF">
            <path d="M134.759,69.543 L134.759,94.459 C134.684,94.481 131.823,96.354 124.793,97.76 C120.553,98.614 114.866,98.664 114.866,98.664 L114.88,69.518 L101.714,69.518 L101.714,111.852 C101.714,111.852 112.934,112.557 122.647,110.975 C129.016,109.94 134.759,108.008 134.759,108.008 L134.759,111.922 L147.814,111.922 L147.814,69.543 L134.759,69.543" id="Fill-5" sketch:type="MSShapeGroup"></path>
            <path d="M97.074,111.531 L97.035,69.223 C82.884,69.469 63.237,72.198 51.046,77.826 L51.046,111.586 L64.33,111.586 L64.33,107.198 L84.05,107.198 L84.05,111.531 L97.074,111.531 L97.074,111.531 Z M64.33,94.246 L64.33,87.733 C64.33,87.733 68.568,85.811 73.871,84.856 C80.027,83.768 84.077,83.768 84.077,83.768 L84.077,94.246 L64.33,94.246 L64.33,94.246 Z" id="Fill-6" sketch:type="MSShapeGroup"></path>
            <path d="M198.369,111.766 L198.383,77.772 C198.383,77.772 189.354,74.268 182.218,72.774 C177.024,71.692 165.385,70.237 165.385,70.237 L165.385,49.673 C165.385,49.673 162.201,50.695 158.013,53.836 C153.62,57.102 152.373,59.681 152.373,59.681 L152.373,111.781 L165.421,111.781 L165.436,83.961 C165.436,83.961 169.511,83.961 175.653,85.057 C180.969,86.018 185.208,87.93 185.208,87.93 L185.208,111.766 L198.369,111.766" id="Fill-7" sketch:type="MSShapeGroup"></path>
            <path d="M249.029,87.864 L249.029,69.223 C234.872,69.469 215.218,72.198 203.031,77.826 L203.031,93.156 L203.049,111.781 C217.2,111.531 235.217,110.639 249.029,106.844 L249.029,87.864 L249.029,87.864 Z M235.751,96.002 C224.417,98.629 216.324,98.016 216.324,98.016 L216.313,87.733 C216.313,87.733 220.541,85.811 225.851,84.856 C232.006,83.768 235.769,83.768 235.769,83.768 L235.751,96.002 L235.751,96.002 Z" id="Fill-8" sketch:type="MSShapeGroup"></path>
            <path d="M13.395,69.901 L13.395,49.337 C13.395,49.337 10.224,50.361 6.028,53.51 C1.651,56.773 0.392,59.341 0.392,59.341 L0.392,106.571 C2.88,107.324 12.893,109.824 22.562,110.692 C31.07,111.449 44.587,112.012 46.448,111.686 L46.401,77.448 C33.692,71.428 13.395,69.901 13.395,69.901 M33.222,98.483 C23.983,98.313 13.459,96.067 13.459,96.067 L13.459,83.623 C13.459,83.623 17.52,83.623 23.674,84.727 C28.983,85.662 33.222,87.594 33.222,87.594 L33.222,98.483" id="Fill-9" sketch:type="MSShapeGroup"></path>
            <path d="M272.551,51.443 C260.709,55.436 253.689,63.668 253.689,63.668 L253.689,133.151 C253.689,133.151 256.876,132.133 261.079,128.977 C265.443,125.705 266.779,123.176 266.779,123.176 L266.803,82.459 L276.429,82.459 L276.429,69.518 L266.814,69.518 L266.814,69.397 C267.866,68.53 272.523,64.912 280.264,63.012 L280.808,62.885 L280.808,49.368 C280.808,49.368 274.678,50.723 272.551,51.443" id="Fill-10" sketch:type="MSShapeGroup"></path>
            <path d="M9.198,125.026 C9.198,124.668 9.14,124.354 9.022,124.086 C8.905,123.817 8.736,123.614 8.516,123.475 C8.337,123.365 8.113,123.285 7.844,123.239 C7.575,123.19 7.214,123.166 6.759,123.166 L5.952,123.166 L5.952,127.094 L6.717,127.094 C7.241,127.094 7.641,127.059 7.916,126.99 C8.192,126.922 8.427,126.791 8.619,126.598 C8.798,126.418 8.94,126.192 9.043,125.916 C9.146,125.641 9.198,125.344 9.198,125.026 L9.198,125.026 Z M9.488,135.344 L7.069,129.43 L5.952,129.43 L5.952,135.096 L1.61,135.096 L1.61,120.623 L7.233,120.623 C7.854,120.623 8.389,120.637 8.836,120.664 C9.284,120.692 9.677,120.737 10.015,120.797 C10.352,120.86 10.652,120.944 10.915,121.047 C11.176,121.149 11.425,121.283 11.659,121.449 C12.183,121.809 12.582,122.274 12.858,122.846 C13.134,123.416 13.271,124.055 13.271,124.758 C13.271,126.508 12.382,127.838 10.604,128.748 L14.037,134.869 L9.488,135.344 L9.488,135.344 Z" id="Fill-11" sketch:type="MSShapeGroup"></path>
            <path d="M16.186,135.096 L16.186,120.623 L24.995,120.623 L24.995,123.352 L20.529,123.352 L20.529,126.143 L24.891,126.143 L24.891,128.914 L20.529,128.914 L20.529,132.365 L25.863,132.365 L25.863,135.096 L16.186,135.096" id="Fill-12" sketch:type="MSShapeGroup"></path>
            <path d="M40.213,135.096 L40.213,127.797 C40.213,127.287 40.217,126.901 40.224,126.639 C40.229,126.377 40.237,126.16 40.244,125.989 C40.251,125.815 40.258,125.66 40.265,125.522 C40.271,125.385 40.281,125.186 40.296,124.924 C40.144,125.475 39.997,125.981 39.851,126.444 C39.708,126.905 39.56,127.356 39.409,127.797 L36.892,135.096 L35.057,135.096 L32.477,127.797 C32.34,127.397 32.196,126.946 32.045,126.444 C31.893,125.94 31.742,125.426 31.591,124.903 C31.604,125.192 31.618,125.43 31.632,125.615 C31.646,125.803 31.656,125.99 31.663,126.184 C31.67,126.377 31.674,126.598 31.674,126.846 L31.674,127.797 L31.674,135.096 L28.262,135.096 L28.262,120.623 L33.41,120.623 L36.45,129.492 L39.386,120.623 L44.369,120.623 L44.369,135.096 L40.213,135.096" id="Fill-13" sketch:type="MSShapeGroup"></path>
            <path d="M56.879,127.922 C56.879,126.377 56.661,125.237 56.227,124.498 C55.793,123.762 55.121,123.393 54.211,123.393 C53.633,123.393 53.17,123.545 52.826,123.848 C52.481,124.151 52.216,124.528 52.03,124.975 C51.844,125.422 51.723,125.908 51.668,126.432 C51.613,126.955 51.585,127.432 51.585,127.86 C51.585,128.299 51.613,128.781 51.668,129.307 C51.723,129.83 51.844,130.315 52.03,130.764 C52.216,131.213 52.481,131.584 52.826,131.881 C53.17,132.176 53.64,132.324 54.231,132.324 C55.997,132.324 56.879,130.858 56.879,127.922 L56.879,127.922 Z M61.428,127.797 C61.428,128.86 61.258,129.848 60.921,130.764 C60.583,131.682 60.103,132.481 59.483,133.162 C58.863,133.846 58.108,134.379 57.22,134.766 C56.33,135.151 55.342,135.344 54.253,135.344 C53.164,135.344 52.175,135.151 51.285,134.766 C50.396,134.379 49.638,133.852 49.012,133.184 C48.384,132.514 47.901,131.723 47.563,130.805 C47.225,129.889 47.058,128.901 47.058,127.838 C47.058,126.75 47.24,125.748 47.605,124.83 C47.971,123.912 48.48,123.123 49.135,122.463 C49.789,121.801 50.568,121.287 51.472,120.922 C52.374,120.557 53.37,120.375 54.459,120.375 C55.452,120.375 56.372,120.559 57.22,120.934 C58.067,121.305 58.805,121.821 59.432,122.483 C60.059,123.145 60.549,123.932 60.9,124.84 C61.251,125.75 61.428,126.737 61.428,127.797 L61.428,127.797 Z" id="Fill-14" sketch:type="MSShapeGroup"></path>
            <path d="M74.081,135.096 L67.527,126.908 L67.527,135.096 L64.115,135.096 L64.115,120.623 L67.134,120.623 L73.42,128.664 L73.42,120.623 L76.831,120.623 L76.831,135.096 L74.081,135.096" id="Fill-15" sketch:type="MSShapeGroup"></path>
            <path d="M87.066,123.352 L87.066,135.096 L82.724,135.096 L82.724,123.352 L78.567,123.352 L78.567,120.623 L91.284,120.623 L91.284,123.352 L87.066,123.352" id="Fill-16" sketch:type="MSShapeGroup"></path>
            <path d="M138.84,124.799 C138.84,125.516 138.678,126.211 138.353,126.887 C138.03,127.563 137.592,128.108 137.041,128.52 C136.462,128.961 135.775,129.303 134.983,129.543 C134.19,129.785 133.374,129.906 132.533,129.906 L132.161,129.906 L132.161,127.342 C132.905,127.274 133.495,127.043 133.929,126.649 C134.363,126.256 134.58,125.75 134.58,125.129 C134.58,124.303 134.215,123.772 133.484,123.537 C133.388,123.51 133.299,123.487 133.215,123.465 C133.133,123.444 133.036,123.432 132.927,123.424 C132.815,123.416 132.671,123.41 132.492,123.403 C132.312,123.397 132.085,123.393 131.809,123.393 L131.252,123.393 L131.252,135.096 L126.93,135.096 L126.93,120.623 L132.141,120.623 C132.844,120.623 133.443,120.633 133.939,120.653 C134.435,120.674 134.866,120.715 135.231,120.778 C135.597,120.838 135.91,120.92 136.173,121.016 C136.433,121.112 136.688,121.237 136.937,121.387 C137.558,121.76 138.03,122.239 138.353,122.824 C138.678,123.41 138.84,124.069 138.84,124.799" id="Fill-17" sketch:type="MSShapeGroup"></path>
            <path d="M145.766,124.821 L144.133,129.348 L147.213,129.348 L145.766,124.821 L145.766,124.821 Z M149.033,135.096 L147.894,131.621 L143.408,131.621 L142.003,135.096 L138.612,135.096 L144.504,120.623 L148.164,120.623 L153.642,135.096 L149.033,135.096 L149.033,135.096 Z" id="Fill-18" sketch:type="MSShapeGroup"></path>
            <path d="M155.38,135.096 L159.723,135.096 L159.723,120.623 L155.38,120.623 L155.38,135.096 Z" id="Fill-19" sketch:type="MSShapeGroup"></path>
            <path d="M173.265,135.158 C172.493,135.281 171.776,135.344 171.114,135.344 C169.846,135.344 168.682,135.155 167.619,134.776 C166.558,134.397 165.642,133.865 164.87,133.184 C164.098,132.5 163.495,131.694 163.06,130.764 C162.627,129.834 162.409,128.809 162.409,127.694 C162.409,126.617 162.62,125.629 163.041,124.727 C163.461,123.824 164.046,123.053 164.799,122.41 C165.55,121.77 166.444,121.27 167.485,120.91 C168.526,120.553 169.668,120.375 170.908,120.375 C171.597,120.375 172.231,120.432 172.81,120.549 C173.389,120.666 173.988,120.85 174.609,121.098 L173.513,123.66 C173.168,123.551 172.841,123.475 172.532,123.434 C172.221,123.393 171.892,123.371 171.55,123.371 C170.846,123.371 170.213,123.479 169.645,123.692 C169.08,123.906 168.599,124.213 168.199,124.614 C167.8,125.014 167.489,125.49 167.268,126.051 C167.048,126.608 166.937,127.225 166.937,127.899 C166.937,128.52 167.033,129.104 167.226,129.647 C167.419,130.192 167.682,130.66 168.013,131.053 C168.344,131.446 168.737,131.758 169.191,131.985 C169.645,132.211 170.136,132.324 170.66,132.324 C170.867,132.324 171.086,132.299 171.321,132.242 L171.321,128.479 L175.642,128.479 L175.642,134.619 C174.829,134.856 174.036,135.033 173.265,135.158" id="Fill-20" sketch:type="MSShapeGroup"></path>
            <path d="M184.553,124.821 L182.921,129.348 L186.001,129.348 L184.553,124.821 L184.553,124.821 Z M187.82,135.096 L186.683,131.621 L182.196,131.621 L180.791,135.096 L177.399,135.096 L183.292,120.623 L186.952,120.623 L192.431,135.096 L187.82,135.096 L187.82,135.096 Z" id="Fill-21" sketch:type="MSShapeGroup"></path>
            <path d="M194.167,135.096 L194.167,120.623 L198.511,120.623 L198.511,132.365 L203.823,132.365 L203.823,135.096 L194.167,135.096" id="Fill-22" sketch:type="MSShapeGroup"></path>
            <path d="M214.679,127.569 C214.679,126.737 214.547,126.01 214.287,125.387 C214.023,124.764 213.632,124.28 213.107,123.934 C212.789,123.725 212.449,123.576 212.083,123.487 C211.718,123.397 211.246,123.352 210.668,123.352 L209.923,123.352 L209.923,132.365 L210.585,132.365 C211.287,132.365 211.863,132.293 212.31,132.149 C212.758,132.002 213.148,131.758 213.479,131.41 C213.851,131.024 214.144,130.483 214.357,129.791 C214.572,129.1 214.679,128.358 214.679,127.569 L214.679,127.569 Z M219.226,127.487 C219.226,128.824 218.956,130.035 218.411,131.115 C217.867,132.198 217.091,133.069 216.085,133.733 C215.368,134.213 214.555,134.563 213.644,134.776 C212.735,134.989 211.652,135.096 210.399,135.096 L205.581,135.096 L205.581,120.623 L210.15,120.623 L211.391,120.623 C211.722,120.623 212.001,120.629 212.228,120.643 C212.457,120.656 212.663,120.678 212.85,120.703 C213.035,120.733 213.251,120.768 213.501,120.807 C214.395,120.975 215.199,121.248 215.909,121.635 C216.618,122.022 217.219,122.502 217.708,123.073 C218.197,123.645 218.572,124.303 218.834,125.047 C219.097,125.793 219.226,126.606 219.226,127.487 L219.226,127.487 Z" id="Fill-23" sketch:type="MSShapeGroup"></path>
            <path d="M234.28,129.772 C234.267,130.11 234.241,130.41 234.208,130.67 C234.174,130.932 234.128,131.172 234.074,131.385 C234.018,131.598 233.948,131.809 233.866,132.016 C233.438,133.104 232.718,133.932 231.705,134.496 C230.692,135.061 229.434,135.344 227.932,135.344 C226.705,135.344 225.638,135.149 224.726,134.756 C223.817,134.362 223.1,133.793 222.577,133.049 C222.398,132.787 222.249,132.53 222.132,132.274 C222.016,132.02 221.925,131.723 221.863,131.385 C221.802,131.045 221.756,130.639 221.728,130.164 C221.702,129.69 221.687,129.108 221.687,128.418 L221.687,120.623 L226.009,120.623 L226.009,127.694 C226.009,128.217 226.017,128.664 226.029,129.037 C226.044,129.41 226.06,129.727 226.081,129.989 C226.101,130.25 226.133,130.475 226.174,130.66 C226.217,130.848 226.27,131.008 226.341,131.147 C226.671,131.932 227.269,132.324 228.139,132.324 C228.676,132.324 229.139,132.176 229.524,131.881 C229.91,131.584 230.179,131.16 230.331,130.608 C230.398,130.346 230.455,129.957 230.496,129.442 C230.537,128.924 230.558,128.307 230.558,127.59 L230.558,120.623 L234.301,120.623 L234.301,128.582 C234.301,129.037 234.293,129.434 234.28,129.772" id="Fill-24" sketch:type="MSShapeGroup"></path>
            <path d="M246.458,131.071 C246.458,131.717 246.324,132.303 246.054,132.824 C245.786,133.348 245.406,133.795 244.917,134.166 C244.428,134.539 243.842,134.828 243.16,135.035 C242.478,135.24 241.716,135.344 240.875,135.344 C240.007,135.344 239.203,135.237 238.467,135.022 C237.728,134.807 237.009,134.463 236.305,133.99 L237.63,131.58 C238.027,131.912 238.456,132.166 238.91,132.346 C239.366,132.526 239.814,132.614 240.254,132.614 C240.751,132.614 241.183,132.489 241.548,132.233 C241.912,131.979 242.097,131.637 242.097,131.211 C242.097,131.004 242.055,130.805 241.971,130.612 C241.889,130.418 241.758,130.217 241.578,130.004 C241.399,129.789 241.179,129.559 240.917,129.313 C240.654,129.065 240.344,128.781 239.986,128.467 C239.476,128.012 239.073,127.664 238.776,127.424 C238.479,127.182 238.227,126.946 238.021,126.711 C237.664,126.324 237.394,125.926 237.215,125.514 C237.037,125.102 236.946,124.647 236.946,124.153 C236.946,123.574 237.072,123.053 237.319,122.594 C237.567,122.133 237.916,121.737 238.363,121.406 C238.81,121.076 239.349,120.823 239.977,120.643 C240.602,120.463 241.296,120.375 242.055,120.375 C243.391,120.375 244.666,120.699 245.879,121.352 L244.721,123.641 C244.308,123.448 243.96,123.311 243.677,123.227 C243.394,123.145 243.087,123.104 242.757,123.104 C242.344,123.104 242.012,123.186 241.765,123.352 C241.517,123.516 241.392,123.737 241.392,124.012 C241.392,124.121 241.41,124.231 241.444,124.342 C241.477,124.451 241.551,124.573 241.661,124.703 C241.77,124.834 241.927,124.992 242.127,125.178 C242.326,125.364 242.585,125.594 242.901,125.869 C243.219,126.145 243.484,126.379 243.697,126.571 C243.912,126.764 244.101,126.94 244.267,127.098 C244.432,127.256 244.577,127.401 244.701,127.531 C244.824,127.662 244.948,127.795 245.072,127.934 C245.996,128.924 246.458,129.971 246.458,131.071" id="Fill-25" sketch:type="MSShapeGroup"></path>
            <path d="M103.474,128.299 C103.474,129.871 103.343,131.053 103.041,131.824 C102.661,132.856 101.979,133.67 101.018,134.287 C100.066,134.891 98.969,135.194 97.729,135.178 L97.729,132.647 C98.377,132.385 98.767,132.03 98.901,131.59 C99.043,131.153 99.112,130.082 99.112,128.379 L99.112,120.623 L103.474,120.623 L103.474,128.299" id="Fill-26" sketch:type="MSShapeGroup"></path>
            <path d="M119.693,135.172 L115.05,135.172 L113.909,131.684 L109.401,131.684 L107.984,135.172 L104.569,135.172 L110.503,120.623 L114.18,120.623 L119.693,135.172 L119.693,135.172 Z M113.222,129.395 L111.759,124.844 L110.126,129.395 L113.222,129.395 L113.222,129.395 Z" id="Fill-27" sketch:type="MSShapeGroup"></path>
            <path d="M242.773,40.505 L242.515,11.665 L212.771,11.665 L212.771,18.506 L187.09,0.635 L92.326,65.246 C96.529,65.009 101.018,64.971 105.777,65.093 L187.046,9.684 L220.223,32.768 L220.223,19.116 L235.129,19.116 L235.357,44.531 L254.217,57.02 C254.217,57.02 257.725,54.104 260.945,52.539 L242.773,40.505" id="Fill-28" sketch:type="MSShapeGroup"></path>
        </g>
    </g>
</svg>