<!-- Generator: Avocode undefined - http://avocode.com -->
<svg height="50" width="50" xmlns:xlink="http://www.w3.org/1999/xlink" xmlns="http://www.w3.org/2000/svg" viewBox="0 0 50 50">
    <path fill="#eb690a" fill-rule="evenodd" d="M 0 25 C 0 38.81 11.19 50 25 50 C 38.81 50 50 38.81 50 25 C 50 11.19 38.81 0 25 0 C 11.19 0 0 11.19 0 25 Z M 34 29.25 C 34 29.64 33.89 30.01 33.71 30.33 L 28.03 23.97 L 33.65 19.05 C 33.87 19.4 34 19.81 34 20.25 L 34 29.25 Z M 25 25.13 L 32.82 18.28 C 32.5 18.11 32.14 18 31.75 18 L 18.25 18 C 17.86 18 17.5 18.11 17.18 18.28 L 25 25.13 L 25 25.13 Z M 27.18 24.71 L 25.37 26.3 C 25.26 26.39 25.13 26.44 25 26.44 C 24.87 26.44 24.74 26.39 24.63 26.3 L 22.82 24.71 L 17.06 31.15 C 17.41 31.37 17.81 31.5 18.25 31.5 L 31.75 31.5 C 32.19 31.5 32.59 31.37 32.94 31.15 L 27.18 24.71 L 27.18 24.71 Z M 16.35 19.05 C 16.13 19.4 16 19.81 16 20.25 L 16 29.25 C 16 29.64 16.11 30.01 16.29 30.33 L 21.97 23.97 L 16.35 19.05 L 16.35 19.05 Z M 16.35 19.05" />
</svg>