<svg id="Layer_1" data-name="Layer 1" xmlns="http://www.w3.org/2000/svg" viewBox="0 0 29.74 27.59"><defs><style>.cls-1{fill:#f58220;}</style></defs><title>carty empty</title><path class="cls-1" d="M20.2,17.35l-0.35,0L4.4,15.61a2.42,2.42,0,0,1-2-1.63L0.25,7.18A2.33,2.33,0,0,1,.59,5.07a2.41,2.41,0,0,1,1.94-1h0L23,4.12,23.55,2A2.39,2.39,0,0,1,25.87.21h4v2.3h-4a0.1,0.1,0,0,0-.09.06l-3.27,13A2.39,2.39,0,0,1,20.2,17.35ZM2.53,6.38l-0.09.09,2.18,6.8L20.13,15A0.12,0.12,0,0,0,20.28,15l2.16-8.57Z" transform="translate(-0.13 -0.21)"/><path class="cls-1" d="M20.75,21.39H3v-2.3H20.73A0.79,0.79,0,0,0,21.11,19s0.12-.56-0.9-2.22l2-1.21c1.27,2.05,1.56,3.58.88,4.67A2.65,2.65,0,0,1,20.75,21.39Z" transform="translate(-0.13 -0.21)"/><circle class="cls-1" cx="4.18" cy="25.06" r="2.53"/><circle class="cls-1" cx="20.68" cy="25.06" r="2.53"/></svg>