<!-- Generator: Avocode undefined - http://avocode.com -->
<svg height="50" width="50" xmlns:xlink="http://www.w3.org/1999/xlink" xmlns="http://www.w3.org/2000/svg" viewBox="0 0 50 50">
    <path fill="#ffffff" fill-rule="evenodd" d="M 25 50 C 38.81 50 50 38.81 50 25 C 50 11.19 38.81 0 25 0 C 11.19 0 0 11.19 0 25 C 0 38.81 11.19 50 25 50 Z M 25.91 34.05 L 32.62 23.4 C 32.81 23.08 32.78 22.69 32.78 22.4 C 32.78 21.22 31.86 21.22 31.63 21.22 L 17.92 21.22 C 17.73 21.22 16.78 21.22 16.78 22.4 C 16.78 22.69 16.75 23.08 16.94 23.4 L 23.64 34.05 C 24.16 34.92 24.78 34.77 24.78 34.77 C 24.78 34.77 25.39 34.92 25.91 34.05 Z M 25.91 34.05" />
</svg>