<?xml version="1.0" encoding="UTF-8" standalone="no"?>
<svg width="50px" height="50px" viewBox="0 0 50 50" version="1.1" xmlns="http://www.w3.org/2000/svg" xmlns:xlink="http://www.w3.org/1999/xlink">
    <!-- Generator: Sketch 3.8.3 (29802) - http://www.bohemiancoding.com/sketch -->
    <title>Combined Shape</title>
    <desc>Created with Sketch.</desc>
    <defs></defs>
    <g id="Page-1-Copy" stroke="none" stroke-width="1" fill="none" fill-rule="evenodd">
        <path d="M25,50 C38.8071187,50 50,38.8071187 50,25 C50,11.1928813 38.8071187,0 25,0 C11.1928813,0 0,11.1928813 0,25 C0,38.8071187 11.1928813,50 25,50 Z M14.6455852,17.6765004 C15.0534081,17.1796127 15.672174,16.9030431 16.3143779,16.9030431 L30.2506724,16.9030431 C30.6491201,16.9030431 31.0288173,17.015546 31.3569507,17.2171137 L32.069469,14.7279874 C32.1866595,14.3201645 32.5569815,14.0389072 32.9788673,14.0389072 L34.0617075,14.0389072 L36.128948,14.0389072 C36.5227081,14.0389072 36.8461538,14.3576654 36.8461538,14.7561131 L36.8461538,14.831115 C36.8461538,15.2248751 36.5273957,15.5483209 36.128948,15.5483209 L33.4195036,15.5483209 L32.0366557,20.4375086 L30.1334819,27.1829939 C31.2163221,27.4548759 32.0179052,28.4345885 32.0179052,29.5971183 C32.0179052,30.9143395 30.9913164,31.9971797 29.6928456,32.0815569 C29.8006609,32.3909398 29.8522247,32.7331361 29.824099,33.0847076 C29.7303466,34.2753631 28.7600092,35.2363252 27.5693537,35.3160148 C26.1490048,35.4144548 24.963037,34.2847383 24.963037,32.8878276 C24.963037,32.6065704 25.0099132,32.339376 25.0989779,32.0862445 L22.2489049,32.0862445 C22.3660954,32.4190655 22.4129716,32.7893875 22.3707831,33.1690848 C22.2395297,34.3222393 21.2879428,35.2316376 20.125413,35.3160148 C18.7050642,35.4144548 17.5144087,34.289426 17.5144087,32.8878276 C17.5144087,31.5331054 18.6394375,30.4502651 19.9894721,30.4502651 L29.5100284,30.4502651 C29.9741028,30.4502651 30.3678629,30.0893184 30.3866134,29.6299316 C30.4053639,29.1424191 30.0162914,28.7439714 29.5334665,28.7439714 L28.1037424,28.7439714 L20.3551064,28.7439714 L18.1753631,28.7439714 C17.2097134,28.7439714 16.3659418,28.083017 16.1315607,27.145493 L14.2377622,19.5234227 C14.0736955,18.8671559 14.2236994,18.1968263 14.6455852,17.6765004 Z M19.9423761,32.0815569 C19.4990422,32.0815569 19.1358857,32.4447134 19.1358857,32.8880473 C19.1358857,33.3313812 19.4990422,33.6945377 19.9423761,33.6945377 C20.38571,33.6945377 20.7488665,33.3313812 20.7488665,32.8880473 C20.7488665,32.4447134 20.3904263,32.0815569 19.9423761,32.0815569 Z M27.3910044,32.0815569 C26.9476705,32.0815569 26.584514,32.4447134 26.584514,32.8880473 C26.584514,33.3313812 26.9476705,33.6945377 27.3910044,33.6945377 C27.8343383,33.6945377 28.1974948,33.3313812 28.1974948,32.8880473 C28.1974948,32.4447134 27.8390546,32.0815569 27.3910044,32.0815569 Z M30.3397372,20.4281334 L30.7053716,19.1390379 C30.761623,18.9421578 30.6819335,18.7968416 30.625682,18.7265273 C30.5741182,18.656213 30.4522401,18.5390225 30.2506724,18.5390225 L28.7225083,18.5390225 L28.3053101,20.432821 L30.3397372,20.432821 L30.3397372,20.4281334 Z M29.8803504,22.0594252 L27.9490509,22.0594252 L27.5646661,23.8125951 L29.3881503,23.8125951 L29.8803504,22.0594252 Z M28.1037424,27.1033044 C28.3146853,27.1033044 28.5021901,26.9626758 28.5584416,26.7564205 L28.9287635,25.4438869 L27.208407,25.4438869 L26.8427726,27.0986168 L28.1037424,27.0986168 L28.1037424,27.1033044 Z M23.9266335,27.1033044 L25.151304,27.1033044 L25.5396142,25.4485745 L23.9316118,25.4485745 L23.9316118,27.1033044 L23.9266335,27.1033044 Z M24.0208253,23.8125951 L25.8958734,23.8125951 L26.2802582,22.0594252 L24.0208253,22.0594252 L24.0208253,23.8125951 Z M24.0208253,20.4281334 L26.6365173,20.4281334 L27.0537155,18.5343349 L24.0208253,18.5343349 L24.0208253,20.4281334 Z M21.0957504,27.1033044 L22.3848459,27.1033044 L22.3848459,25.4485745 L20.7488665,25.4485745 L21.0957504,27.1033044 Z M20.4019826,23.8125951 L22.3848459,23.8125951 L22.3848459,22.0594252 L20.0316606,22.0594252 L20.4019826,23.8125951 Z M22.3848459,20.4281334 L22.3848459,18.5343349 L19.2910167,18.5343349 L19.6894644,20.4281334 L22.3848459,20.4281334 Z M17.7112887,26.7470453 C17.7628525,26.9579882 17.9503573,27.107992 18.1706755,27.107992 L19.4269577,27.107992 L19.0753862,25.4532621 L17.3878429,25.4532621 L17.7112887,26.7470453 Z M16.9847076,23.8125951 L18.7331899,23.8125951 L18.3628679,22.0594252 L16.5487589,22.0594252 L16.9847076,23.8125951 Z M15.8221778,19.1202874 L16.1456236,20.4234458 L18.0206716,20.4234458 L17.6222239,18.5296473 L16.2815646,18.5296473 C16.0799969,18.5296473 15.9628064,18.6421502 15.9112426,18.7124645 C15.8549912,18.7827788 15.770614,18.928095 15.8221778,19.1202874 Z" id="Combined-Shape" fill="#EB690A"></path>
    </g>
</svg>