<?xml version="1.0" encoding="utf-8"?>
<!-- Generator: Adobe Illustrator 21.0.0, SVG Export Plug-In . SVG Version: 6.00 Build 0)  -->
<svg version="1.1" id="Layer_1" xmlns="http://www.w3.org/2000/svg" xmlns:xlink="http://www.w3.org/1999/xlink" x="0px" y="0px"
	 viewBox="0 0 316 314" style="enable-background:new 0 0 316 314;" xml:space="preserve">
<style type="text/css">
	.st0{enable-background:new    ;}
	.st1{fill:#9DA5B1;}
</style>
<g class="st0">
	<path class="st1" d="M159.4,246.7v-35.5H66.7v-39l73.6-119.5h69.5v114.6h23.6v43.9h-23.6v35.5H159.4z M159.4,96.4l-44.2,71h44.2
		V96.4z"/>
</g>
<g>
	<path class="st1" d="M158.3,310.1c-84.9,0-154-69.1-154-154c0-84.9,69.1-154,154-154s154,69.1,154,154
		C312.3,241,243.2,310.1,158.3,310.1z M158.3,14.1c-78.3,0-142,63.7-142,142c0,78.3,63.7,142,142,142s142-63.7,142-142
		C300.3,77.8,236.6,14.1,158.3,14.1z"/>
</g>
</svg>
