<?xml version="1.0" encoding="utf-8"?>
<!-- Generator: Adobe Illustrator 21.0.0, SVG Export Plug-In . SVG Version: 6.00 Build 0)  -->
<svg version="1.1" id="Layer_1" xmlns="http://www.w3.org/2000/svg" xmlns:xlink="http://www.w3.org/1999/xlink" x="0px" y="0px"
	 viewBox="0 0 316 314" style="enable-background:new 0 0 316 314;" xml:space="preserve">
<style type="text/css">
	.st0{enable-background:new    ;}
	.st1{fill:#9DA5B1;}
</style>
<g class="st0">
	<path class="st1" d="M79.9,219.7l25.3-34c14.2,13.7,36.1,20.4,52.9,20.4c21.5,0,32.6-8.1,32.6-18.9c0-11.1-8.1-16.6-34.6-16.6
		c-8.4,0-23.3,0.3-26.2,0.6v-44.5c3.8,0.3,18.9,0.3,26.2,0.3c20.1,0,31.4-4.9,31.4-15.1c0-12.2-14-17.7-32.6-17.7
		c-17.7,0-34.6,6.4-48.3,18.6L82.5,81.3c16.6-18.3,41.9-31.4,77.6-31.4c49.4,0,77.1,21.2,77.1,53.2c0,22.7-19.5,39.8-42.5,43.6
		c20.6,2,45.7,18,45.7,45.9c0,34-32,57.6-80.3,57.6C123,250.2,95.3,237.1,79.9,219.7z"/>
</g>
<g>
	<path class="st1" d="M158.3,310.1c-84.9,0-154-69.1-154-154c0-84.9,69.1-154,154-154s154,69.1,154,154
		C312.3,241,243.2,310.1,158.3,310.1z M158.3,14.1c-78.3,0-142,63.7-142,142c0,78.3,63.7,142,142,142s142-63.7,142-142
		C300.3,77.8,236.6,14.1,158.3,14.1z"/>
</g>
</svg>
