<?xml version="1.0" encoding="utf-8"?>
<!-- Generator: Adobe Illustrator 21.0.0, SVG Export Plug-In . SVG Version: 6.00 Build 0)  -->
<svg version="1.1" id="Layer_1" xmlns="http://www.w3.org/2000/svg" xmlns:xlink="http://www.w3.org/1999/xlink" x="0px" y="0px"
	 viewBox="0 0 316 314" style="enable-background:new 0 0 316 314;" xml:space="preserve">
<style type="text/css">
	.st0{enable-background:new    ;}
	.st1{fill:#9DA5B1;}
</style>
<g class="st0">
	<path class="st1" d="M86.1,246.7v-39c84-60.8,99.7-74.2,99.7-93.6c0-13.1-12.5-20.1-26.8-20.1c-21.5,0-37.8,8.1-51.8,21.2
		L79.7,82.1c20.6-22.7,51.5-32.3,78.5-32.3c45.7,0,78.5,25.6,78.5,64.3c0,30-21.2,55.3-69.5,89h71v43.6H86.1z"/>
</g>
<g>
	<path class="st1" d="M158.3,310.1c-84.9,0-154-69.1-154-154c0-84.9,69.1-154,154-154s154,69.1,154,154
		C312.3,241,243.2,310.1,158.3,310.1z M158.3,14.1c-78.3,0-142,63.7-142,142c0,78.3,63.7,142,142,142s142-63.7,142-142
		C300.3,77.8,236.6,14.1,158.3,14.1z"/>
</g>
</svg>
