<?xml version="1.0" encoding="utf-8"?>
<!-- Generator: Adobe Illustrator 21.0.2, SVG Export Plug-In . SVG Version: 6.00 Build 0)  -->
<!DOCTYPE svg PUBLIC "-//W3C//DTD SVG 1.1//EN" "http://www.w3.org/Graphics/SVG/1.1/DTD/svg11.dtd">
<svg version="1.1" id="Layer_1" xmlns="http://www.w3.org/2000/svg" xmlns:xlink="http://www.w3.org/1999/xlink" x="0px" y="0px"
	 viewBox="0 0 50 50" style="enable-background:new 0 0 50 50;" xml:space="preserve" preserveAspectRatio="true">
<style type="text/css">
	.st0{fill:#EAE624;}
	.st1{enable-background:new    ;}
</style>
<g>
	<path class="st0" d="M4.3,17.1c0.4,0.7,0.3-0.8,0.7-0.3c0.1-0.3,0.2-0.5,0.4-0.8c-0.2-0.1-0.4-0.3-0.5-0.5c0.3-0.2,0.6-0.4,0.9-0.3
		c0.4-0.8,0.9-1.6,1.5-2.4c-0.3-0.2-0.6-0.3-0.7-0.6c1-0.9,0.3-0.9,1.5-1.6c0.1,0.2,0.2,0.4,0.4,0.6C8.7,11,8.9,10.8,9,10.6
		c-0.5-0.7-1.7,0.4-1.5-1c1-0.2,1.1,0.3,1.8-0.2C9.2,8.6,8.9,8.5,10,9c0.2-0.2-0.1-0.5-0.2-0.8c0.5,0.3,1.3-0.4,1.8-0.1
		c0.3-0.2,0.5-0.4,0.8-0.6C13,6.4,14.8,6.1,15.8,5c0,0.2,0.1,0.3,0.1,0.5C16.5,5.2,17,5,17.6,4.8c-0.2-0.2-0.4-0.4-0.7-0.5
		c1.3-0.8,0-0.4-0.4-1.1c1.7-1.2,1.2,2.2,3.1,0.3c0,0.2-0.1,0.5-0.2,0.7c1.5-0.4,3-0.6,4.5-0.7c0.4,0,0.7,0,1.1,0
		c1.8,0,3.5,0.2,5.2,0.6h0.1l0,0C33.7,5,36.8,6.6,39.5,9c4.3,3.9,6.8,9.2,7,14.9c0.5,11-7.3,20.5-17.9,22.3c0.2,0.2,0.3,0.5,0.2,0.8
		c-0.3,0-0.6-0.3-0.9-0.7c-0.6,0.1-1.3,0.2-2,0.2C16.2,47,7.5,40.8,4.5,31.8C4.2,31.6,4,31.5,4.1,31c-0.3-0.5-0.9,0.4-1.3,0.5l0,0
		c0,0,0,0,0-0.1c0.4,0.1,0.6,0.8,1.1,0.2c-0.2,0.5-0.7,0.4-1,0.6c-0.2,0.7-0.8,1.6-0.4,2.8v0.1c0.4,0.4,0.2-0.5,0.8-0.2
		c0.2,0.4-0.1,0.7-0.4,1.1C7.1,44.1,15.5,49.6,25,49.6c0.4,0,0.8,0,1.2,0c10-0.5,18.3-6.9,21.7-15.6c-0.8,0.4-1.4,0.2-1.8-0.8
		c0.2-0.7,0.6-0.4,1.1-0.7c-0.2-0.3-0.4-0.7-0.7-0.5c0.1-1.1,1.3-1.2,2.5-1.6c0.5-2.1,0.7-4.2,0.5-6.4c-0.3-5.6-2.4-10.9-6.1-15.1
		c-0.9,0.3-1.6,0-2.2-0.7c0.4-0.3,0.7-0.5,0.9-0.7c-0.2-0.2-0.4-0.4-0.6-0.6c-0.4-0.3-0.8-0.7-1.1-1c0,0.1,0,0.1-0.1,0.2
		c-0.6,0.5-1.2-0.5-1.1-1.1c-4.5-3.2-9.8-4.8-15.4-4.5c-1.5,0.1-2.9,0.3-4.3,0.6c-0.5,0.6-0.2,1.3-1.3,1.7c-0.8-0.2-1.7-0.5-2.5-0.5
		C10.2,4.5,5.7,8.7,3,14C4.1,14.5,5.3,16.2,4.3,17.1z M24.2,46.8c0.4,0.5,0.5,0.9,0.5,1.3C23.9,48.4,22.9,47.4,24.2,46.8z
		 M25.8,49.3c-0.4,0.2-0.8-0.1-1-0.6c0.5-0.6,0.8,0.2,1.2-0.1C26.1,48.8,25.7,49,25.8,49.3z M37.1,43.7c0.2,0.3,0.4,0.6,0.6,0.9
		C36.9,45.4,36.1,44.1,37.1,43.7z M25.9,1.7c-0.8,0.3-1.6,0.1-2.2-0.9C24.8-0.2,25.2,1.3,25.9,1.7z"/>
	<path class="st0" d="M47.8,32.4c-0.4,0.2,0.1,0.6,0.3,1c0.1-0.3,0.2-0.5,0.3-0.8C48.2,32.4,48,32.4,47.8,32.4z"/>
	<path class="st0" d="M3.1,14.7c-0.1-0.2-0.2-0.3-0.3-0.3c-0.1,0.2-0.2,0.5-0.3,0.7C2.7,15,2.9,14.8,3.1,14.7z"/>
	<path class="st0" d="M48.8,31c0-0.1,0-0.1,0-0.2C48.9,30.9,48.8,31,48.8,31z"/>
	<path class="st0" d="M2.2,32c-0.2-0.4-0.5-0.3-0.7-0.5c-0.1,0.1-0.1,0.2-0.1,0.3c0.1,0.3,0.1,0.5,0.2,0.8c0.1,0,0.2,0,0.3,0
		C2,32.3,1.9,32.1,2.2,32z"/>
	<path class="st0" d="M4.7,17.7c0-0.1,0-0.1,0.1-0.2C4.7,17.5,4.7,17.6,4.7,17.7z"/>
	<path class="st0" d="M7.8,12c0.2-0.2,0.4-0.5,0.6-0.7C7.8,11.4,7.8,11.6,7.8,12z"/>
	<path class="st0" d="M4.1,16.3C4.5,15,2.9,16,2.4,15.2c-1.5,3.3-2.2,7.1-2,11c0,0.6,0.1,1.1,0.1,1.7c0.4,0.3,0.9,0.5,1.6,0.6
		c-0.6,0.9-0.4,0.1-1.3,0.5c0.7,0.5,1.5,1,2.4,0.7c-0.2,1,0.2,1,0.8,0.6c-0.3-1.4-0.6-2.8-0.6-4.3c-0.1-2.9,0.3-5.7,1.2-8.3
		c-0.8-0.6-1.8-0.4-2.5-1.5C2.9,15.7,3.6,15.9,4.1,16.3z"/>
</g>
<g class="st1">
	<path class="st0" d="M28.1,37.5h-5.8V17h-2.9v-4.4h8.7V37.5z"/>
</g>
</svg>
