<!-- Generator: Avocode undefined - http://avocode.com -->
<svg height="50" width="50" xmlns:xlink="http://www.w3.org/1999/xlink" xmlns="http://www.w3.org/2000/svg" viewBox="0 0 50 50">
    <path fill="#eb690a" fill-rule="evenodd" d="M 0 25 C 0 38.81 11.19 50 25 50 C 38.81 50 50 38.81 50 25 C 50 11.19 38.81 0 25 0 C 11.19 0 0 11.19 0 25 Z M 33.92 30.35 L 33.83 30.07 C 33.62 29.45 32.92 28.79 32.28 28.61 L 29.92 27.97 C 29.28 27.79 28.36 28.03 27.89 28.5 L 27.04 29.35 C 23.93 28.51 21.49 26.07 20.65 22.96 L 21.5 22.11 C 21.97 21.64 22.21 20.73 22.03 20.08 L 21.39 17.72 C 21.22 17.08 20.56 16.38 19.93 16.17 L 19.66 16.08 C 19.03 15.87 18.13 16.08 17.66 16.55 L 16.38 17.84 C 16.15 18.06 16 18.71 16 18.71 C 15.96 22.78 17.55 26.7 20.43 29.57 C 23.29 32.44 27.2 34.03 31.25 34 C 31.27 34 31.94 33.85 32.17 33.63 L 33.45 32.34 C 33.92 31.88 34.13 30.98 33.92 30.35 Z M 33.92 30.35" />
</svg>