<svg id="Layer_1" data-name="Layer 1" xmlns="http://www.w3.org/2000/svg" viewBox="0 0 216 216">
  <title>Phone_Solutions-RES</title>
  <circle cx="107.33" cy="108" r="100" fill="#f37029"/>
  <g>
    <path d="M134.38,63.82,128,70.18a58.24,58.24,0,0,1,0,82.49l6.36,6.36a67.23,67.23,0,0,0,0-95.21Z" fill="#fff"/>
    <path d="M120.81,77.39l-6.36,6.36a39.07,39.07,0,0,1,0,55.35l6.36,6.36a48.06,48.06,0,0,0,0-68.07Z" fill="#fff"/>
  </g>
  <path d="M78.5,77a18,18,0,0,0,8.67,2.67c5.5.33,6.83-.33,6.83-.33L106.83,51.5s-2.5-8-10.5-11.17-14-1-14-1-35,16.67-35,72.5S83.2,185.74,84.5,186.17a17.24,17.24,0,0,0,11.83-1.83c4.67-2.83,8.17-9.17,8.17-9.17l-11-26.67a90.85,90.85,0,0,1-11.5-.17c-5.83-.5-9.67-4.17-10.67-7a77.43,77.43,0,0,1-5.5-29.5c0-16.5,6.33-29.5,8.83-32.17S77.9,76.8,78.5,77Z" fill="#fff"/>
</svg>
